#!OML:ASF X:\für Bonn\!DataBase\2005_08_12_Daniel\c3d\Daniel.ASF
:FULLY-SPECIFIED
:DEGREES
52
root 7.74647 20.694 -2.23243 535.092 93.9164 -1981.59
lowerback 14.9134 -1.75703 1.96552
upperback -0.429871 -2.01719 -0.601581
thorax -8.94477 -1.06491 -1.3094
lowerneck -8.44023 2.45982 -4.29104
upperneck 10.907 4.07033 -0.988531
head 4.59569 1.79124 0.652012
rclavicle 2.57985e-014 -2.48481e-015
rhumerus -21.7231 48.0432 -100.796
rradius 101.963
rwrist 2.55553
rhand -31.4871 28.5785
rfingers 7.12502
rthumb -4.75353 -1.3482
lclavicle 2.57985e-014 -2.48481e-015
lhumerus -22.432 -37.247 92.4307
lradius 108.943
lwrist 13.5842
lhand -17.0751 -19.4603
lfingers 7.12502
lthumb 9.1629 10.3207
rfemur -8.95546 2.32452 23.8889
rtibia 35.8491
rfoot 10.4511 -5.79599
rtoes -13.4981
lfemur -12.0222 4.5418 -19.8499
ltibia 45.6738
lfoot 9.40309 0.470202
ltoes -9.77483
53
root 7.96089 20.6139 -2.25005 536.606 93.9994 -1980.06
lowerback 15.4029 -1.72258 1.91765
upperback -0.253072 -1.96559 -0.612898
thorax -9.02631 -1.0341 -1.29757
lowerneck -8.71329 2.44075 -4.20621
upperneck 11.1622 4.06773 -1.07409
head 4.72375 1.78091 0.619217
rclavicle -1.04362e-015 -2.68359e-015
rhumerus -22.5217 47.6692 -101.482
rradius 101.008
rwrist 2.72188
rhand -31.6192 28.8312
rfingers 7.12502
rthumb -4.88107 -1.09261
lclavicle -1.04362e-015 -2.68359e-015
lhumerus -23.8235 -37.1492 93.5294
lradius 108.194
lwrist 13.6146
lhand -17.4409 -19.6089
lfingers 7.12502
lthumb 8.80993 10.1872
rfemur -9.59073 2.63336 23.762
rtibia 35.5366
rfoot 9.95038 -5.96987
rtoes -13.6671
lfemur -12.5098 4.22101 -19.9049
ltibia 45.2534
lfoot 9.15369 1.22892
ltoes -8.67645
54
root 8.1725 20.5171 -2.26808 538.012 94.0738 -1978.6
lowerback 15.9682 -1.70182 1.85923
upperback -0.0568044 -1.93063 -0.612042
thorax -9.12838 -1.00982 -1.26196
lowerneck -8.87557 2.43218 -4.14783
upperneck 11.2489 4.07256 -1.17678
head 4.78123 1.77609 0.582086
rclavicle 2.41927e-014 3.08116e-015
rhumerus -23.2688 47.2845 -102.131
rradius 99.8978
rwrist 3.06961
rhand -31.8343 29.0347
rfingers 7.12502
rthumb -5.08874 -0.884163
lclavicle 2.41927e-014 3.08116e-015
lhumerus -25.2653 -36.8986 94.7116
lradius 107.342
lwrist 13.6771
lhand -17.956 -19.6562
lfingers 7.12502
lthumb 8.31284 10.1602
rfemur -10.1632 3.02138 23.6309
rtibia 35.1839
rfoot 9.45582 -6.24403
rtoes -13.6222
lfemur -13.008 3.86982 -19.9449
ltibia 44.924
lfoot 8.91511 1.79422
ltoes -7.44314
55
root 8.38058 20.4123 -2.28583 539.351 94.1614 -1977.24
lowerback 16.5814 -1.66379 1.80921
upperback 0.106832 -1.87129 -0.617239
thorax -9.29174 -0.974946 -1.24265
lowerneck -8.77976 2.41643 -4.19384
upperneck 11.0405 4.04429 -1.18285
head 4.70054 1.76452 0.581914
rclavicle -2.31739e-014 9.44227e-016
rhumerus -24.045 46.7623 -102.818
rradius 98.693
rwrist 3.51474
rhand -32.0891 29.2111
rfingers 7.12502
rthumb -5.3348 -0.701784
lclavicle -2.31739e-014 9.44227e-016
lhumerus -26.7511 -36.6068 95.9369
lradius 106.381
lwrist 13.8025
lhand -18.6193 -19.6562
lfingers 7.12502
lthumb 7.67261 10.1846
rfemur -10.782 3.43177 23.4768
rtibia 34.8155
rfoot 9.08896 -6.60171
rtoes -13.226
lfemur -13.5762 3.46472 -19.9831
ltibia 44.6548
lfoot 8.69657 2.27678
ltoes -6.24641
56
root 8.58622 20.3004 -2.30373 540.43 94.2405 -1976.14
lowerback 17.2194 -1.63184 1.77788
upperback 0.245167 -1.81578 -0.615616
thorax -9.49627 -0.943015 -1.22573
lowerneck -8.45001 2.4159 -4.27813
upperneck 10.6272 4.01691 -1.15224
head 4.51614 1.76022 0.593341
rclavicle 1.93722e-014 1.03368e-014
rhumerus -24.8802 46.103 -103.57
rradius 97.384
rwrist 4.0003
rhand -32.2459 29.3205
rfingers 7.12502
rthumb -5.48615 -0.588486
lclavicle 1.93722e-014 1.03368e-014
lhumerus -28.2502 -36.1631 97.1636
lradius 105.274
lwrist 13.8448
lhand -19.2932 -19.5846
lfingers 7.12502
lthumb 7.02214 10.2789
rfemur -11.4335 3.88108 23.3295
rtibia 34.4618
rfoot 8.84856 -6.91196
rtoes -13.1275
lfemur -14.174 3.04953 -19.995
ltibia 44.4322
lfoot 8.40856 2.63231
ltoes -5.44217
57
root 8.78783 20.1827 -2.32101 541.651 94.3198 -1974.88
lowerback 17.92 -1.61241 1.70865
upperback 0.377168 -1.78243 -0.606633
thorax -9.74113 -0.919574 -1.17317
lowerneck -8.10802 2.44523 -4.31898
upperneck 9.84259 4.03092 -1.21309
head 4.67962 1.77542 0.625978
rclavicle 2.12731e-014 1.83876e-015
rhumerus -25.8172 45.2935 -104.399
rradius 96.008
rwrist 4.5921
rhand -32.2682 29.3552
rfingers 7.12502
rthumb -5.5077 -0.553237
lclavicle 2.12731e-014 1.83876e-015
lhumerus -29.6117 -35.5502 98.2649
lradius 104.098
lwrist 13.9585
lhand -19.7733 -19.388
lfingers 7.12502
lthumb 6.55871 10.4905
rfemur -12.133 4.32684 23.1548
rtibia 34.1475
rfoot 8.71181 -7.20855
rtoes -13.4464
lfemur -14.7632 2.60267 -20.0174
ltibia 44.2375
lfoot 7.98573 2.89295
ltoes -5.48718
58
root 8.98869 20.059 -2.33939 542.353 94.434 -1974.17
lowerback 18.4457 -1.58198 1.67702
upperback 0.637289 -1.727 -0.596519
thorax -9.74501 -0.884002 -1.15231
lowerneck -7.85036 2.45236 -4.4173
upperneck 9.32333 4.015 -1.20453
head 4.4349 1.77688 0.632965
rclavicle -7.8054e-015 -5.11871e-015
rhumerus -26.4204 44.4318 -104.982
rradius 94.5722
rwrist 5.09319
rhand -32.1335 29.2012
rfingers 7.12502
rthumb -5.37763 -0.710525
lclavicle -7.8054e-015 -5.11871e-015
lhumerus -30.5389 -34.8416 99.1157
lradius 102.798
lwrist 13.9414
lhand -20.1024 -18.9419
lfingers 7.12502
lthumb 6.24092 10.9462
rfemur -12.9402 4.78315 23.0016
rtibia 33.8874
rfoot 8.69601 -7.41188
rtoes -14.6146
lfemur -15.3911 2.12834 -19.9934
ltibia 44.0884
lfoot 7.37872 3.18083
ltoes -5.22652
59
root 9.18643 19.9255 -2.35759 542.735 94.5367 -1973.78
lowerback 18.9923 -1.55956 1.669
upperback 0.91934 -1.67508 -0.585821
thorax -9.73557 -0.850223 -1.14386
lowerneck -7.65214 2.47343 -4.45609
upperneck 8.78843 4.01785 -1.24197
head 4.20087 1.78746 0.616049
rclavicle -7.48859e-015 -7.95139e-016
rhumerus -27.0329 43.4209 -105.543
rradius 93.113
rwrist 5.4496
rhand -31.729 28.9714
rfingers 7.12502
rthumb -4.98704 -0.94989
lclavicle -7.48859e-015 -7.95139e-016
lhumerus -31.3576 -33.8881 99.8237
lradius 101.433
lwrist 13.7587
lhand -20.0681 -18.354
lfingers 7.12502
lthumb 6.27409 11.5331
rfemur -13.7368 5.27492 22.8708
rtibia 33.6691
rfoot 8.80669 -7.68996
rtoes -15.7104
lfemur -16.0345 1.59225 -19.9347
ltibia 43.9968
lfoot 6.63881 3.51334
ltoes -4.90769
60
root 9.38249 19.7812 -2.37605 542.808 94.6589 -1973.7
lowerback 19.5353 -1.52642 1.66686
upperback 1.2249 -1.60353 -0.551453
thorax -9.69511 -0.805733 -1.11929
lowerneck -7.56352 2.47891 -4.52308
upperneck 8.22243 4.01011 -1.3028
head 3.98019 1.79095 0.597684
rclavicle 8.78457e-015 -2.96003e-015
rhumerus -27.5958 42.2963 -106.018
rradius 91.5839
rwrist 5.75326
rhand -31.2725 28.7074
rfingers 7.12502
rthumb -4.54626 -1.2238
lclavicle 8.78457e-015 -2.96003e-015
lhumerus -31.9359 -32.8482 100.427
lradius 99.888
lwrist 13.3732
lhand -19.8835 -17.4716
lfingers 7.12502
lthumb 6.45231 12.4101
rfemur -14.5706 5.71543 22.7572
rtibia 33.5257
rfoot 9.09313 -7.89326
rtoes -16.5045
lfemur -16.7456 0.950559 -19.8331
ltibia 43.9738
lfoot 5.93739 4.07198
ltoes -4.13952
61
root 9.57838 19.6293 -2.39513 542.694 94.769 -1973.89
lowerback 20.0472 -1.50001 1.69838
upperback 1.48367 -1.53534 -0.522139
thorax -9.68882 -0.765453 -1.11916
lowerneck -7.52789 2.49978 -4.49933
upperneck 7.73562 4.02338 -1.41036
head 3.80239 1.80393 0.551388
rclavicle 1.16949e-014 -2.11209e-015
rhumerus -28.1371 41.1448 -106.444
rradius 90.0028
rwrist 5.69502
rhand -30.6197 28.3871
rfingers 7.12502
rthumb -3.91588 -1.55669
lclavicle 1.16949e-014 -2.11209e-015
lhumerus -32.5053 -31.7242 100.943
lradius 98.2383
lwrist 12.776
lhand -19.6109 -16.5083
lfingers 7.12502
lthumb 6.71548 13.3652
rfemur -15.5669 6.09917 22.6589
rtibia 33.4684
rfoot 9.50727 -7.99559
rtoes -16.7782
lfemur -17.6202 0.269123 -19.6897
ltibia 44.0358
lfoot 5.42163 4.76354
ltoes -3.08228
62
root 9.77513 19.464 -2.41421 542.832 94.9026 -1973.83
lowerback 20.6194 -1.4642 1.69772
upperback 1.71476 -1.45941 -0.483212
thorax -9.74338 -0.720311 -1.09183
lowerneck -7.55983 2.51278 -4.49298
upperneck 7.24487 4.03548 -1.55631
head 3.63842 1.81431 0.497079
rclavicle -3.87009e-015 6.03808e-015
rhumerus -28.5865 40.0054 -106.767
rradius 88.2516
rwrist 5.54822
rhand -30.104 28.0535
rfingers 7.12502
rthumb -3.41787 -1.89889
lclavicle -3.87009e-015 6.03808e-015
lhumerus -33.0326 -30.4569 101.444
lradius 96.457
lwrist 11.9728
lhand -19.2748 -15.5207
lfingers 7.12502
lthumb 7.03984 14.3422
rfemur -16.635 6.43831 22.5395
rtibia 33.5532
rfoot 9.98948 -7.96054
rtoes -16.8864
lfemur -18.5227 -0.528363 -19.5398
ltibia 44.1728
lfoot 5.03833 5.56545
ltoes -1.30846
63
root 9.97375 19.2794 -2.43335 542.325 95.0343 -1974.41
lowerback 21.2666 -1.42595 1.74153
upperback 1.87016 -1.36801 -0.42552
thorax -9.92152 -0.671341 -1.07277
lowerneck -7.59043 2.52614 -4.42216
upperneck 6.82301 4.04877 -1.76018
head 3.50197 1.82373 0.413823
rclavicle 2.45996e-014 -1.45113e-014
rhumerus -29.1686 38.7571 -107.085
rradius 86.4105
rwrist 5.32784
rhand -29.727 27.854
rfingers 7.12502
rthumb -3.05386 -2.10392
lclavicle 2.45996e-014 -1.45113e-014
lhumerus -33.653 -29.1345 101.958
lradius 94.5935
lwrist 10.9666
lhand -18.9932 -14.6421
lfingers 7.12502
lthumb 7.31175 15.2116
rfemur -17.7712 6.72 22.498
rtibia 33.8422
rfoot 10.2706 -7.70888
rtoes -17.6407
lfemur -19.4615 -1.31745 -19.2864
ltibia 44.407
lfoot 4.54034 6.31803
ltoes 0.234837
64
root 10.1737 19.0693 -2.45334 542.232 95.1767 -1974.59
lowerback 21.9242 -1.36791 1.73359
upperback 1.9817 -1.26292 -0.363503
thorax -10.1508 -0.614955 -1.02407
lowerneck -7.59775 2.52865 -4.34584
upperneck 6.37491 4.04542 -1.97849
head 3.35342 1.82591 0.323847
rclavicle -6.69656e-015 -3.47873e-015
rhumerus -29.6725 37.4038 -107.3
rradius 84.3026
rwrist 5.06587
rhand -29.5323 27.9029
rfingers 7.12502
rthumb -2.86574 -2.05756
lclavicle -6.69656e-015 -3.47873e-015
lhumerus -34.3174 -27.7556 102.474
lradius 92.6752
lwrist 9.85131
lhand -18.7164 -13.8893
lfingers 7.12502
lthumb 7.57885 15.9549
rfemur -19.0162 6.93642 22.4348
rtibia 34.3997
rfoot 10.2567 -7.20467
rtoes -18.6036
lfemur -20.4132 -2.15982 -19.0346
ltibia 44.7521
lfoot 3.89651 6.98549
ltoes 0.323923
